<svg xmlns="http://www.w3.org/2000/svg" width="300" height="300" viewBox="0 0 300 300" style="background-color: #fff;">

  <!-- #audio -->
  <g fill="#008CBA" transform="translate(78.000000, 60.000000)">
    <path d="M143.041455,39.645 L104.212364,0.936290323 C103.616,0.342580645 102.805818,0.0014516129 101.953455,0.0014516129 L3.19709091,0.0014516129 C1.42836364,0.0014516129 0.00145454545,1.44580645 0.00145454545,3.18774194 L0.00145454545,176.800645 C0.00145454545,178.564355 1.42836364,179.988387 3.19709091,179.988387 L140.782545,179.988387 C142.551273,179.988387 143.978182,178.564355 143.978182,176.800645 L143.978182,41.8964516 C143.978182,41.0472581 143.637818,40.2401613 143.041455,39.645 L143.041455,39.645 Z M105.150545,10.8783871 L133.067636,38.7101613 L105.150545,38.7101613 L105.150545,10.8783871 L105.150545,10.8783871 Z M137.585455,173.614355 L6.39418182,173.614355 L6.39418182,6.37548387 L98.7563636,6.37548387 L98.7563636,41.8964516 C98.7563636,43.6601613 100.205091,45.0827419 101.953455,45.0827419 L137.585455,45.0827419 L137.585455,173.614355 L137.585455,173.614355 Z"></path>
    <path d="M100.738909,67.9427419 C100.695273,67.7308065 100.631273,67.5391935 100.546909,67.3475806 C100.461091,67.1559677 100.376727,66.9658065 100.248727,66.7959677 C100.184727,66.6682258 100.077091,66.5622581 99.9709091,66.4548387 C99.9083636,66.3706452 99.8429091,66.285 99.7585455,66.2429032 C99.7149091,66.1790323 99.6509091,66.1369355 99.5869091,66.1151613 C99.5025455,66.0309677 99.4167273,65.9670968 99.3105455,65.9032258 C99.3105455,65.9032258 99.3105455,65.8814516 99.2887273,65.8814516 C99.1825455,65.7972581 99.0763636,65.7551613 98.9701818,65.7116129 C98.7141818,65.583871 98.4581818,65.4996774 98.16,65.4575806 C97.9883636,65.4140323 97.7978182,65.3922581 97.6058182,65.3922581 C97.392,65.3922581 97.1796364,65.4140323 96.9658182,65.4575806 C96.9236364,65.4575806 96.8814545,65.4779032 96.8392727,65.4779032 L60.6952727,74.5287097 C60.5876364,74.5504839 60.4814545,74.5708065 60.3752727,74.6129032 C60.2690909,74.6346774 60.1410909,74.6767742 60.0552727,74.7203226 C59.6072727,74.8887097 59.2247273,75.1659677 58.9265455,75.5274194 C58.7985455,75.6537097 58.6923636,75.8032258 58.6065455,75.9512903 C58.5003636,76.0790323 58.4145455,76.2285484 58.3723636,76.3983871 C58.3723636,76.3983871 58.3505455,76.4187097 58.3505455,76.4404839 C58.2661818,76.59 58.2225455,76.7598387 58.1803636,76.95 C58.1163636,77.1633871 58.0945455,77.4174194 58.0945455,77.651129 L58.0945455,110.942419 C56.2414545,109.879839 54.1105455,109.264355 51.8298182,109.264355 C44.8392727,109.264355 39.1709091,114.935806 39.1709091,121.883226 C39.1709091,128.830645 44.8392727,134.502097 51.8298182,134.502097 C58.7985455,134.502097 64.4887273,128.830645 64.4887273,121.883226 L64.4887273,80.1377419 L94.4087273,72.6590323 L94.4087273,101.849516 C92.5556364,100.786935 90.4232727,100.191774 88.144,100.191774 C81.1752727,100.191774 75.4850909,105.842903 75.4850909,112.812097 C75.4850909,119.759516 81.1752727,125.430968 88.144,125.430968 C95.1345455,125.430968 100.802909,119.759516 100.802909,112.812097 L100.802909,68.58 C100.802909,68.3680645 100.781091,68.1546774 100.738909,67.9427419 L100.738909,67.9427419 Z M51.8298182,128.129516 C48.3767273,128.129516 45.5636364,125.325 45.5636364,121.883226 C45.5636364,118.441452 48.3767273,115.636935 51.8298182,115.636935 C55.2814545,115.636935 58.0945455,118.441452 58.0945455,121.883226 C58.0945455,125.325 55.2814545,128.129516 51.8298182,128.129516 L51.8298182,128.129516 Z M88.144,119.056935 C84.6909091,119.056935 81.8778182,116.253871 81.8778182,112.812097 C81.8778182,109.370323 84.6909091,106.565806 88.144,106.565806 C91.5956364,106.565806 94.4087273,109.370323 94.4087273,112.812097 C94.4087273,116.253871 91.5956364,119.056935 88.144,119.056935 L88.144,119.056935 Z"></path>
  </g>

  <!-- #image -->
  <g fill="#008CBA" transform="translate(378.000000, 60.000000)">
    <path d="M144.8978,41.2591935 C144.81166,40.8556452 144.64084,40.4724194 144.42622,40.1327419 C144.29774,39.9629032 144.17072,39.7930645 144.02034,39.645 L105.04564,0.936290323 C104.44704,0.341129032 103.63382,0.0014516129 102.77826,0.0014516129 L3.65156,0.0014516129 C1.8762,0.0014516129 0.44248,1.44580645 0.44248,3.18774194 L0.44248,176.800645 C0.44248,178.564355 1.8762,179.988387 3.65156,179.988387 L141.75296,179.988387 C143.50642,179.988387 144.96058,178.564355 144.96058,176.800645 L144.96058,41.8964516 C144.96058,41.6845161 144.94014,41.471129 144.8978,41.2591935 L144.8978,41.2591935 Z M105.98734,10.8783871 L134.00912,38.7101613 L105.98734,38.7101613 L105.98734,10.8783871 L105.98734,10.8783871 Z M138.54388,173.614355 L6.86064,173.614355 L6.86064,6.37548387 L99.56918,6.37548387 L99.56918,41.8964516 C99.56918,43.6601613 101.0029,45.0827419 102.77826,45.0827419 L138.54388,45.0827419 L138.54388,173.614355 L138.54388,173.614355 Z"></path>
    <path d="M105.81506,65.3922581 L39.588,65.3922581 C37.8141,65.3922581 36.38038,66.8380645 36.38038,68.58 L36.38038,123.646935 C36.38038,125.409194 37.8141,126.833226 39.588,126.833226 L105.81506,126.833226 C107.59042,126.833226 109.02414,125.409194 109.02414,123.646935 L109.02414,68.58 C109.02414,66.8380645 107.59042,65.3922581 105.81506,65.3922581 L105.81506,65.3922581 Z M42.79708,71.7662903 L102.60744,71.7662903 L102.60744,98.1958065 L89.10974,84.7683871 C87.88918,83.5795161 85.77218,83.5795161 84.55308,84.7683871 L63.69698,105.503226 L57.49344,99.3208065 C56.27434,98.1319355 54.15588,98.1319355 52.93678,99.3208065 L42.79708,109.412419 L42.79708,71.7662903 L42.79708,71.7662903 Z M102.60744,120.459194 L42.79708,120.459194 L42.79708,118.419677 L55.20416,106.098387 L61.4296,112.259032 C62.6268,113.449355 64.7657,113.449355 65.96436,112.259032 L86.84236,91.5459677 L102.60744,107.203065 L102.60744,120.459194 L102.60744,120.459194 Z"></path>
    <path d="M58.99286,95.3608065 C53.77482,95.3608065 49.5306,91.1453226 49.5306,85.9630645 C49.5306,80.7808065 53.77482,76.5653226 58.99286,76.5653226 C64.2109,76.5653226 68.45658,80.7808065 68.45658,85.9630645 C68.45658,91.1453226 64.2109,95.3608065 58.99286,95.3608065 L58.99286,95.3608065 Z M58.99286,82.9379032 C57.31386,82.9379032 55.9473,84.2951613 55.9473,85.9630645 C55.9473,87.6309677 57.31386,88.9882258 58.99286,88.9882258 C60.67332,88.9882258 62.03988,87.6309677 62.03988,85.9630645 C62.03988,84.2951613 60.67332,82.9379032 58.99286,82.9379032 L58.99286,82.9379032 Z"></path>
  </g>

  <!-- #video -->
  <g fill="#008CBA" transform="translate(678.000000, 60.000000)">
    <path d="M144.90802,41.2591935 C144.82334,40.8556452 144.65106,40.4724194 144.4379,40.1327419 C144.30942,39.9629032 144.18094,39.7930645 144.03202,39.645 L105.05732,0.936290323 C104.45726,0.341129032 103.6455,0.0014516129 102.78994,0.0014516129 L3.66324,0.0014516129 C1.88788,0.0014516129 0.45562,1.44580645 0.45562,3.18774194 L0.45562,176.800645 C0.45562,178.564355 1.88788,179.988387 3.66324,179.988387 L141.76464,179.988387 C143.53854,179.988387 144.97226,178.564355 144.97226,176.800645 L144.97226,41.8964516 C144.97226,41.6845161 144.95182,41.471129 144.90802,41.2591935 L144.90802,41.2591935 Z M105.99756,10.8783871 L134.0208,38.7101613 L105.99756,38.7101613 L105.99756,10.8783871 L105.99756,10.8783871 Z M138.55556,173.614355 L6.87232,173.614355 L6.87232,6.37548387 L99.58086,6.37548387 L99.58086,41.8964516 C99.58086,43.6601613 101.01458,45.0827419 102.78994,45.0827419 L138.55556,45.0827419 L138.55556,173.614355 L138.55556,173.614355 Z"></path>
    <path d="M64.92484,117.526935 C64.41092,117.526935 63.897,117.405 63.42688,117.159677 C62.37422,116.608065 61.71576,115.52371 61.71576,114.340645 L61.71576,85.5479032 C61.71576,84.3662903 62.37422,83.2804839 63.42688,82.728871 C64.47662,82.1787097 65.75266,82.2469355 66.7367,82.9175806 L87.914,97.3132258 C88.78854,97.9098387 89.31122,98.8925806 89.31122,99.945 C89.31122,100.995968 88.78854,101.980161 87.914,102.575323 L66.7367,116.970968 C66.19212,117.341129 65.55848,117.526935 64.92484,117.526935 L64.92484,117.526935 Z M68.13246,91.5924194 L68.13246,108.297581 L80.42128,99.945 L68.13246,91.5924194 L68.13246,91.5924194 Z"></path>
    <path d="M72.7081,133.724032 C53.9544,133.724032 38.69594,118.570645 38.69594,99.945 C38.69594,81.3179032 53.9544,66.1645161 72.7081,66.1645161 C91.4618,66.1645161 106.72026,81.3179032 106.72026,99.945 C106.72026,118.570645 91.4618,133.724032 72.7081,133.724032 L72.7081,133.724032 Z M72.7081,72.5370968 C57.49198,72.5370968 45.1141,84.8322581 45.1141,99.945 C45.1141,115.05629 57.49198,127.351452 72.7081,127.351452 C87.92422,127.351452 100.3021,115.05629 100.3021,99.945 C100.3021,84.8322581 87.92422,72.5370968 72.7081,72.5370968 L72.7081,72.5370968 Z"></path>
  </g>

  <!-- #doc -->
  <g fill="#008CBA" transform="translate(78.000000, 360.000000)">
    <path d="M143.930182,41.2591935 C143.844364,40.833871 143.674182,40.4520968 143.44,40.1124194 C143.332364,39.9425806 143.205818,39.7930645 143.056,39.645 L104.242909,0.936290323 C103.646545,0.341129032 102.836364,0.0014516129 101.984,0.0014516129 L3.21309091,0.0014516129 C1.44436364,0.0014516129 0.016,1.44580645 0.016,3.18774194 L0.016,176.800645 C0.016,178.564355 1.44436364,179.988387 3.21309091,179.988387 L140.797091,179.988387 C142.565818,179.988387 143.992727,178.564355 143.992727,176.800645 L143.992727,41.8964516 C143.992727,41.6845161 143.972364,41.471129 143.930182,41.2591935 L143.930182,41.2591935 Z M105.181091,10.8783871 L133.080727,38.7101613 L105.181091,38.7101613 L105.181091,10.8783871 L105.181091,10.8783871 Z M137.6,173.614355 L6.41018182,173.614355 L6.41018182,6.37548387 L98.7869091,6.37548387 L98.7869091,41.8964516 C98.7869091,43.6601613 100.213818,45.0827419 101.984,45.0827419 L137.6,45.0827419 L137.6,173.614355 L137.6,173.614355 Z"></path>
    <path d="M63.5970909,71.2785484 L63.5970909,76.9079032 C63.5970909,78.6716129 62.1469091,80.0941935 60.4,80.0941935 C58.7578182,80.0941935 57.4152727,78.8835484 57.2450909,77.2896774 L53.3658182,77.2896774 L53.3658182,93.4998387 C54.9643636,93.6696774 56.1789091,95.0298387 56.1789091,96.6440323 C56.1789091,98.4077419 54.7505455,99.8303226 52.9818182,99.8303226 L47.3338182,99.8303226 C45.5854545,99.8303226 44.1367273,98.4077419 44.1367273,96.6440323 C44.1367273,95.0298387 45.3934545,93.6696774 46.9716364,93.4998387 L46.9716364,77.2896774 L42.176,77.2896774 C42.0058182,78.8835484 40.6414545,80.0941935 39.0210909,80.0941935 C37.2523636,80.0941935 35.824,78.6716129 35.824,76.9079032 L35.824,71.2785484 C35.824,69.5366129 37.2523636,68.0908065 39.0210909,68.0908065 C40.6414545,68.0908065 42.0058182,69.345 42.176,70.9170968 L57.2450909,70.9170968 C57.4152727,69.345 58.7578182,68.0908065 60.4,68.0908065 C62.1469091,68.0908065 63.5970909,69.5366129 63.5970909,71.2785484"></path>
    <path d="M105.000727,113.510323 L39.0123636,113.510323 C37.248,113.510323 35.8152727,112.083387 35.8152727,110.324032 C35.8152727,108.564677 37.248,107.137742 39.0123636,107.137742 L105.000727,107.137742 C106.766545,107.137742 108.199273,108.564677 108.199273,110.324032 C108.199273,112.083387 106.766545,113.510323 105.000727,113.510323"></path>
    <path d="M105.000727,126.840484 L39.0123636,126.840484 C37.248,126.840484 35.8152727,125.413548 35.8152727,123.654194 C35.8152727,121.894839 37.248,120.467903 39.0123636,120.467903 L105.000727,120.467903 C106.766545,120.467903 108.199273,121.894839 108.199273,123.654194 C108.199273,125.413548 106.766545,126.840484 105.000727,126.840484"></path>
    <path d="M105.000727,86.5248387 L72.0872727,86.5248387 C70.3229091,86.5248387 68.8901818,85.0979032 68.8901818,83.3385484 C68.8901818,81.5791935 70.3229091,80.1522581 72.0872727,80.1522581 L105.000727,80.1522581 C106.766545,80.1522581 108.199273,81.5791935 108.199273,83.3385484 C108.199273,85.0979032 106.766545,86.5248387 105.000727,86.5248387"></path>
    <path d="M105.000727,99.855 L72.0872727,99.855 C70.3229091,99.855 68.8901818,98.4280645 68.8901818,96.6687097 C68.8901818,94.9093548 70.3229091,93.4824194 72.0872727,93.4824194 L105.000727,93.4824194 C106.766545,93.4824194 108.199273,94.9093548 108.199273,96.6687097 C108.199273,98.4280645 106.766545,99.855 105.000727,99.855"></path>
  </g>

  <!-- #pdf -->
  <g fill="#008CBA" transform="translate(378.000000, 360.000000)">
    <path d="M144.41298,41.0675806 C144.39254,40.9195161 144.3502,40.77 144.2845,40.6422581 C144.13558,40.2604839 143.90052,39.9208065 143.60122,39.6232258 L104.62652,0.936290323 C104.47614,0.786774194 104.32722,0.660483871 104.15494,0.532741935 C103.98412,0.426774194 103.79286,0.341129032 103.59868,0.256935484 C103.47166,0.193064516 103.32128,0.149516129 103.17236,0.129193548 C102.9154,0.0435483871 102.63654,0.0014516129 102.35914,0.0014516129 L3.23244,0.0014516129 C1.45708,0.0014516129 0.02482,1.42548387 0.02482,3.18774194 L0.02482,176.800645 C0.02482,178.542581 1.45708,179.988387 3.23244,179.988387 L141.33384,179.988387 C143.1092,179.988387 144.54146,178.542581 144.54146,176.800645 L144.54146,41.8746774 C144.54146,41.598871 144.49912,41.3230645 144.41298,41.0675806 L144.41298,41.0675806 Z M105.56822,10.8783871 L133.59,38.6883871 L105.56822,38.6883871 L105.56822,10.8783871 L105.56822,10.8783871 Z M138.12476,173.614355 L6.44152,173.614355 L6.44152,6.37548387 L99.15006,6.37548387 L99.15006,41.8746774 C99.15006,43.6383871 100.58378,45.0624194 102.35914,45.0624194 L138.12476,45.0624194 L138.12476,173.614355 L138.12476,173.614355 Z"></path>
    <path d="M103.81914,106.265323 C102.49784,103.729355 99.53112,102.496935 94.7467,102.496935 C92.40632,102.496935 89.59874,102.772742 86.39404,103.32 C81.90892,98.433871 77.3216,91.6287097 73.96214,84.8627419 C77.49826,69.7790323 74.93158,66.5245161 73.9563,65.2877419 C72.82334,63.8579032 71.19836,63.0696774 69.37628,63.0696774 C68.65358,63.0696774 67.90022,63.1974194 67.12642,63.4514516 C65.17586,64.1017742 63.70126,65.4677419 62.86176,67.4085484 C61.1959,71.2741935 62.25148,77.4130645 65.9993,85.661129 C63.78302,94.2706452 60.22938,104.289677 56.41002,112.695968 C46.02066,117.496452 40.70334,122.188065 40.15876,127.033548 C39.98064,128.636129 40.2084,131.715 43.72846,134.335161 C44.75338,135.095806 45.96226,135.497903 47.21932,135.497903 C50.07946,135.497903 52.82426,133.529516 55.8596,129.300968 C57.81016,126.574839 59.8965,122.908065 62.06752,118.392097 C68.73388,115.541129 76.78286,112.977581 83.87846,111.440323 C88.13728,115.349516 92.053,117.329516 95.52196,117.329516 C98.4113,117.329516 100.88308,116.023065 102.6672,113.550968 C105.0397,110.260161 104.60316,107.773548 103.81914,106.265323 L103.81914,106.265323 Z M47.27626,129.517258 C46.03526,128.572258 46.11118,127.933548 46.13454,127.694032 C46.30098,126.227903 48.60924,123.628065 54.28426,120.463548 C49.98164,128.34871 47.67338,129.395323 47.27626,129.517258 L47.27626,129.517258 Z M68.39078,69.7543548 C68.57328,69.3406452 68.77914,69.1998387 69.03756,69.1127419 C69.1529,69.0720968 69.23466,69.056129 69.29452,69.0459677 C69.69894,69.6396774 70.15884,72.0101613 69.29598,77.5887097 C68.2477,74.3545161 67.70896,71.3409677 68.39078,69.7543548 L68.39078,69.7543548 Z M63.55234,111.344516 C66.2402,104.967581 68.74702,97.9301613 70.6421,91.4124194 C73.62926,96.7267742 77.20188,101.887258 80.78764,106.02 C75.1243,107.342419 69.09596,109.204839 63.55234,111.344516 L63.55234,111.344516 Z M97.7835,110.080161 C96.96152,111.219677 96.1483,111.364839 95.52196,111.364839 C94.1116,111.364839 92.199,110.457581 90.03382,108.812903 C91.8194,108.579194 93.40934,108.465968 94.74962,108.465968 C97.11336,108.465968 98.06966,108.820161 98.38648,108.99 C98.331,109.177258 98.18062,109.532903 97.7835,110.080161 L97.7835,110.080161 Z"></path>
  </g>

  <!-- #slides -->
  <g fill="#008CBA" transform="translate(678.000000, 360.000000)">
    <path d="M143.92,41.2591935 C143.835636,40.8556452 143.665455,40.4724194 143.451636,40.1327419 C143.323636,39.9629032 143.195636,39.7930645 143.047273,39.645 L104.218182,0.936290323 C103.620364,0.341129032 102.811636,0.0014516129 101.959273,0.0014516129 L3.20290909,0.0014516129 C1.43418182,0.0014516129 0.00727272727,1.44580645 0.00727272727,3.18774194 L0.00727272727,176.800645 C0.00727272727,178.564355 1.43418182,179.988387 3.20290909,179.988387 L140.788364,179.988387 C142.535273,179.988387 143.984,178.564355 143.984,176.800645 L143.984,41.8964516 C143.984,41.6845161 143.963636,41.471129 143.92,41.2591935 L143.92,41.2591935 Z M105.154909,10.8783871 L133.073455,38.7101613 L105.154909,38.7101613 L105.154909,10.8783871 L105.154909,10.8783871 Z M137.591273,173.614355 L6.4,173.614355 L6.4,6.37548387 L98.7621818,6.37548387 L98.7621818,41.8964516 C98.7621818,43.6601613 100.190545,45.0827419 101.959273,45.0827419 L137.591273,45.0827419 L137.591273,173.614355 L137.591273,173.614355 Z"></path>
    <path d="M65.0836364,113.212742 C64.5716364,113.212742 64.0596364,113.089355 63.5912727,112.844032 C62.5425455,112.293871 61.8865455,111.208065 61.8865455,110.025 L61.8865455,91.1816129 C61.8865455,89.9985484 62.5425455,88.9127419 63.5912727,88.361129 C64.6385455,87.8109677 65.9069091,87.8820968 66.8887273,88.5498387 L80.6981818,97.9708065 C81.5694545,98.5674194 82.0887273,99.5501613 82.0887273,100.602581 C82.0887273,101.653548 81.5694545,102.637742 80.6981818,103.231452 L66.8887273,112.653871 C66.3476364,113.025484 65.7163636,113.212742 65.0836364,113.212742 L65.0836364,113.212742 Z M68.2792727,97.2217742 L68.2792727,103.981935 L73.2334545,100.602581 L68.2792727,97.2217742 L68.2792727,97.2217742 Z"></path>
    <path d="M104.984727,65.3922581 L39.0050909,65.3922581 C37.2378182,65.3922581 35.8094545,66.8380645 35.8094545,68.58 L35.8094545,123.646935 C35.8094545,125.409194 37.2378182,126.833226 39.0050909,126.833226 L104.984727,126.833226 C106.733091,126.833226 108.181818,125.409194 108.181818,123.646935 L108.181818,68.58 C108.181818,66.8380645 106.733091,65.3922581 104.984727,65.3922581 L104.984727,65.3922581 Z M42.2021818,71.7662903 L101.787636,71.7662903 L101.787636,75.2719355 L42.2021818,75.2719355 L42.2021818,71.7662903 Z M42.2021818,81.6459677 L101.787636,81.6459677 L101.787636,120.460645 L42.2021818,120.460645 L42.2021818,81.6459677 Z"></path>
  </g>

  <!-- #sheet -->
  <g fill="#008CBA" transform="translate(978.000000, 360.000000)">
    <path d="M144.02034,39.645 L105.04564,0.936290323 C104.44704,0.342580645 103.63382,0.0014516129 102.77826,0.0014516129 L3.65156,0.0014516129 C1.8762,0.0014516129 0.44248,1.44580645 0.44248,3.18774194 L0.44248,176.800645 C0.44248,178.564355 1.8762,179.988387 3.65156,179.988387 L141.75296,179.988387 C143.52832,179.988387 144.96058,178.564355 144.96058,176.800645 L144.96058,41.8964516 C144.96058,41.0472581 144.61894,40.2401613 144.02034,39.645 L144.02034,39.645 Z M105.98734,10.8783871 L134.00912,38.7101613 L105.98734,38.7101613 L105.98734,10.8783871 L105.98734,10.8783871 Z M138.54388,173.614355 L6.86064,173.614355 L6.86064,6.37548387 L99.56918,6.37548387 L99.56918,41.8964516 C99.56918,43.6601613 101.0029,45.0827419 102.77826,45.0827419 L138.54388,45.0827419 L138.54388,173.614355 L138.54388,173.614355 Z"></path>
    <path d="M76.98006,66.6464516 C75.2047,66.6464516 73.77098,68.0908065 73.77098,69.8327419 L73.77098,95.7091935 C73.77098,97.451129 75.2047,98.8969355 76.98006,98.8969355 L103.01332,98.8969355 C104.78868,98.8969355 106.22094,97.451129 106.22094,95.7091935 C106.22094,79.6906452 93.10868,66.6464516 76.98006,66.6464516 L76.98006,66.6464516 Z M80.18914,92.5229032 L80.18914,73.2541935 C90.2208,74.6564516 98.17926,82.5590323 99.56918,92.5229032 L80.18914,92.5229032 L80.18914,92.5229032 Z"></path>
    <path d="M93.98614,101.488065 L71.14006,101.488065 L71.14006,78.8196774 C71.14006,77.0559677 69.7078,75.6333871 67.93244,75.6333871 C51.82426,75.6333871 38.6901,88.6558065 38.6901,104.674355 C38.6901,120.692903 51.82426,133.716774 67.93244,133.716774 C84.06106,133.716774 97.19522,120.692903 97.19522,104.674355 C97.19522,102.912097 95.7396,101.488065 93.98614,101.488065 L93.98614,101.488065 Z M67.93244,127.342742 C55.35454,127.342742 45.10826,117.18871 45.10826,104.674355 C45.10826,93.266129 53.66386,83.7914516 64.72336,82.2396774 L64.72336,104.674355 C64.72336,106.438065 66.17752,107.862097 67.93244,107.862097 L90.542,107.862097 C89.0017,118.866774 79.44016,127.342742 67.93244,127.342742 L67.93244,127.342742 Z"></path>
  </g>

  <!-- #code -->
  <g fill="#008CBA" transform="translate(78.000000, 660.000000)">
    <path d="M144.47722,41.2591935 C144.39254,40.8556452 144.22026,40.4724194 144.0071,40.1327419 C143.87862,39.9629032 143.75014,39.7930645 143.60122,39.645 L104.62652,0.936290323 C104.02792,0.342580645 103.2147,0.0014516129 102.35914,0.0014516129 L3.23244,0.0014516129 C1.45708,0.0014516129 0.02482,1.44580645 0.02482,3.18774194 L0.02482,176.800645 C0.02482,178.564355 1.45708,179.988387 3.23244,179.988387 L141.33384,179.988387 C143.0873,179.988387 144.54146,178.564355 144.54146,176.800645 L144.54146,41.8964516 C144.54146,41.6845161 144.52102,41.471129 144.47722,41.2591935 L144.47722,41.2591935 Z M105.56822,10.8783871 L133.59,38.7101613 L105.56822,38.7101613 L105.56822,10.8783871 L105.56822,10.8783871 Z M138.12476,173.614355 L6.44152,173.614355 L6.44152,6.37548387 L99.15006,6.37548387 L99.15006,41.8964516 C99.15006,43.6601613 100.58378,45.0827419 102.35914,45.0827419 L138.12476,45.0827419 L138.12476,173.614355 L138.12476,173.614355 Z"></path>
    <path d="M50.92626,115.808226 C50.30138,115.808226 49.67212,115.626774 49.11878,115.25371 L30.42348,102.576774 C29.54748,101.981613 29.02334,100.998871 29.02334,99.945 C29.02334,98.891129 29.54748,97.9069355 30.42348,97.3117742 L49.11878,84.6348387 C50.5817,83.6520968 52.57898,84.0164516 53.57908,85.4709677 C54.57772,86.9254839 54.20104,88.9069355 52.73666,89.9012903 L37.92204,99.945 L52.73666,109.98871 C54.20104,110.981613 54.57772,112.963065 53.57908,114.417581 C52.95712,115.321935 51.94972,115.808226 50.92626,115.808226"></path>
    <path d="M93.62834,115.808226 C92.60488,115.808226 91.59894,115.321935 90.97552,114.417581 C89.97688,112.964516 90.35356,110.981613 91.81794,109.98871 L106.62964,99.945 L91.81794,89.9012903 C90.35356,88.9069355 89.97688,86.9240323 90.97552,85.4709677 C91.97854,84.015 93.9729,83.6520968 95.43582,84.6348387 L114.12966,97.3117742 C115.00566,97.9069355 115.5298,98.891129 115.5298,99.945 C115.5298,100.998871 115.00566,101.981613 114.12966,102.576774 L95.43582,115.25371 C94.88248,115.626774 94.25322,115.808226 93.62834,115.808226"></path>
    <path d="M64.9408,121.695968 C64.55098,121.695968 64.15386,121.624839 63.76842,121.475323 C62.11862,120.832258 61.3054,118.984355 61.95364,117.345484 L76.62372,80.2190323 C77.27196,78.5772581 79.13784,77.7716129 80.78326,78.416129 C82.43452,79.0577419 83.24628,80.9070968 82.5995,82.5459677 L67.92796,119.672419 C67.43156,120.929516 66.22122,121.695968 64.9408,121.695968"></path>
  </g>

  <!-- #csv -->
  <g fill="#008CBA" transform="translate(378.000000, 660.000000)">
    <path d="M144.03202,39.645 L105.05732,0.936290323 C104.45726,0.342580645 103.6455,0.0014516129 102.78994,0.0014516129 L3.66324,0.0014516129 C1.88788,0.0014516129 0.45562,1.44580645 0.45562,3.18774194 L0.45562,176.800645 C0.45562,178.564355 1.88788,179.988387 3.66324,179.988387 L141.76464,179.988387 C143.54,179.988387 144.97226,178.564355 144.97226,176.800645 L144.97226,41.8964516 C144.97226,41.0472581 144.63062,40.2401613 144.03202,39.645 L144.03202,39.645 Z M105.99756,10.8783871 L134.0208,38.7101613 L105.99756,38.7101613 L105.99756,10.8783871 L105.99756,10.8783871 Z M138.55556,173.614355 L6.87232,173.614355 L6.87232,6.37548387 L99.58086,6.37548387 L99.58086,41.8964516 C99.58086,43.6601613 101.01458,45.0827419 102.78994,45.0827419 L138.55556,45.0827419 L138.55556,173.614355 L138.55556,173.614355 Z"></path>
    <path d="M105.82674,65.3922581 L39.60114,65.3922581 C37.82578,65.3922581 36.39206,66.8380645 36.39206,68.58 L36.39206,123.646935 C36.39206,125.409194 37.82578,126.833226 39.60114,126.833226 L105.82674,126.833226 C107.6021,126.833226 109.03582,125.409194 109.03582,123.646935 L109.03582,68.58 C109.03582,66.8380645 107.6021,65.3922581 105.82674,65.3922581 L105.82674,65.3922581 Z M42.80876,108.477581 L69.50486,108.477581 L69.50486,120.459194 L42.80876,120.459194 L42.80876,108.477581 Z M42.80876,90.1219355 L69.50486,90.1219355 L69.50486,102.103548 L42.80876,102.103548 L42.80876,90.1219355 Z M42.80876,71.7662903 L69.50486,71.7662903 L69.50486,83.7493548 L42.80876,83.7493548 L42.80876,71.7662903 Z M75.92302,108.477581 L102.61912,108.477581 L102.61912,120.459194 L75.92302,120.459194 L75.92302,108.477581 Z M75.92302,90.1219355 L102.61912,90.1219355 L102.61912,102.103548 L75.92302,102.103548 L75.92302,90.1219355 Z M75.92302,71.7662903 L102.61912,71.7662903 L102.61912,83.7493548 L75.92302,83.7493548 L75.92302,71.7662903 Z"></path>
  </g>

  <!-- #zip -->
  <g fill="#008CBA" transform="translate(678.000000, 660.000000)">
    <path d="M143.924364,41.2591935 C143.838545,40.8556452 143.668364,40.4724194 143.454545,40.1327419 C143.454545,40.1327419 143.454545,40.1124194 143.434182,40.1124194 C143.326545,39.9425806 143.2,39.7930645 143.050182,39.645 L104.237091,0.936290323 C103.640727,0.341129032 102.808727,0.0014516129 101.978182,0.0014516129 L3.20727273,0.0014516129 C1.43854545,0.0014516129 0.0101818182,1.44580645 0.0101818182,3.18774194 L0.0101818182,176.800645 C0.0101818182,178.564355 1.43854545,179.988387 3.20727273,179.988387 L140.789818,179.988387 C142.56,179.988387 143.988364,178.564355 143.988364,176.800645 L143.988364,41.8964516 C143.988364,41.6845161 143.966545,41.471129 143.924364,41.2591935 L143.924364,41.2591935 Z M105.175273,10.8783871 L133.074909,38.7101613 L105.175273,38.7101613 L105.175273,10.8783871 L105.175273,10.8783871 Z M137.592727,173.614355 L6.40436364,173.614355 L6.40436364,6.37548387 L98.7810909,6.37548387 L98.7810909,41.8964516 C98.7810909,43.6601613 100.208,45.0827419 101.978182,45.0827419 L137.592727,45.0827419 L137.592727,173.614355 L137.592727,173.614355 Z"></path>
    <path d="M72.2865455,122.967581 C71.456,122.967581 70.6254545,122.626452 70.0276364,122.03129 C69.4298182,121.436129 69.088,120.60871 69.088,119.78129 C69.088,118.930645 69.4298182,118.123548 70.0276364,117.526935 C71.2203636,116.338065 73.3512727,116.338065 74.5469091,117.526935 C75.1418182,118.123548 75.4836364,118.930645 75.4836364,119.78129 C75.4836364,120.60871 75.1418182,121.436129 74.5469091,122.03129 C73.9490909,122.626452 73.1185455,122.967581 72.2865455,122.967581"></path>
    <path d="M81.2174545,99.2787097 L75.4836364,99.2787097 L75.4836364,95.4116129 L79.7890909,95.4116129 C81.5592727,95.4116129 82.9861818,93.9672581 82.9861818,92.2253226 C82.9861818,90.4616129 81.5592727,89.0390323 79.7890909,89.0390323 L75.4836364,89.0390323 L75.4836364,84.3648387 L79.7890909,84.3648387 C81.5592727,84.3648387 82.9861818,82.9408065 82.9861818,81.1785484 C82.9861818,79.4148387 81.5592727,77.9908065 79.7890909,77.9908065 L75.4836364,77.9908065 L75.4836364,73.3383871 L79.7890909,73.3383871 C81.5592727,73.3383871 82.9861818,71.8940323 82.9861818,70.1520968 C82.9861818,68.3883871 81.5592727,66.9658065 79.7890909,66.9658065 L75.4836364,66.9658065 L75.4836364,64.6287097 C75.4836364,62.865 74.0552727,61.4424194 72.2865455,61.4424194 L64.784,61.4424194 C63.0356364,61.4424194 61.5869091,62.865 61.5869091,64.6287097 C61.5869091,66.3909677 63.0356364,67.815 64.784,67.815 L69.0894545,67.815 L69.0894545,72.4674194 L64.784,72.4674194 C63.0356364,72.4674194 61.5869091,73.9117742 61.5869091,75.6551613 C61.5869091,77.4174194 63.0356364,78.8414516 64.784,78.8414516 L69.0894545,78.8414516 L69.0894545,83.5156452 L64.784,83.5156452 C63.0356364,83.5156452 61.5869091,84.9382258 61.5869091,86.7019355 C61.5869091,88.4656452 63.0356364,89.8882258 64.784,89.8882258 L69.0894545,89.8882258 L69.0894545,99.2787097 L62.8029091,99.2787097 C61.0327273,99.2787097 59.6058182,100.702742 59.6058182,102.465 L59.6058182,129.170323 C59.6058182,130.934032 61.0327273,132.356613 62.8029091,132.356613 L81.2174545,132.356613 C82.9658182,132.356613 84.4145455,130.934032 84.4145455,129.170323 L84.4145455,102.465 C84.4145455,100.702742 82.9658182,99.2787097 81.2174545,99.2787097 L81.2174545,99.2787097 Z M66,105.652742 L78.0203636,105.652742 L78.0203636,125.984032 L66,125.984032 L66,105.652742 Z"></path>
  </g>

  <!-- #file -->
  <g fill="#008CBA" transform="translate(78.000000, 960.000000)">
    <path d="M143.924364,41.2591935 C143.838545,40.8556452 143.668364,40.4724194 143.454545,40.1327419 C143.454545,40.1327419 143.454545,40.1124194 143.434182,40.1124194 C143.326545,39.9425806 143.2,39.7930645 143.050182,39.645 L104.237091,0.936290323 C103.640727,0.341129032 102.808727,0.0014516129 101.978182,0.0014516129 L3.20727273,0.0014516129 C1.43854545,0.0014516129 0.0101818182,1.44580645 0.0101818182,3.18774194 L0.0101818182,176.800645 C0.0101818182,178.564355 1.43854545,179.988387 3.20727273,179.988387 L140.789818,179.988387 C142.56,179.988387 143.988364,178.564355 143.988364,176.800645 L143.988364,41.8964516 C143.988364,41.6845161 143.966545,41.471129 143.924364,41.2591935 L143.924364,41.2591935 Z M105.175273,10.8783871 L133.074909,38.7101613 L105.175273,38.7101613 L105.175273,10.8783871 L105.175273,10.8783871 Z M137.592727,173.614355 L6.40436364,173.614355 L6.40436364,6.37548387 L98.7810909,6.37548387 L98.7810909,41.8964516 C98.7810909,43.6601613 100.208,45.0827419 101.978182,45.0827419 L137.592727,45.0827419 L137.592727,173.614355 L137.592727,173.614355 Z"></path>
  </g>

  <view id="audio" viewBox="0 0 300 300" />
  <view id="image" viewBox="300 0 300 300" />
  <view id="video" viewBox="600 0 300 300" />

  <view id="doc" viewBox="0 300 300 300" />
  <view id="pdf" viewBox="300 300 300 300" />
  <view id="slides" viewBox="600 300 300 300" />
  <view id="sheet" viewBox="900 300 300 300" />

  <view id="code" viewBox="0 600 300 300" />
  <view id="csv" viewBox="300 600 300 300" />
  <view id="zip" viewBox="600 600 300 300" />

  <view id="file" viewBox="0 900 300 300" />

</svg>