<?xml version="1.0" encoding="UTF-8" standalone="no"?>
<svg width="140px" height="26px" viewBox="0 0 140 26" version="1.1" xmlns="http://www.w3.org/2000/svg" xmlns:xlink="http://www.w3.org/1999/xlink" xmlns:sketch="http://www.bohemiancoding.com/sketch/ns">
    <!-- Generator: Sketch 3.2.2 (9983) - http://www.bohemiancoding.com/sketch -->
    <title>PushType logo</title>
    <desc>Created with Sketch.</desc>
    <defs></defs>
    <g id="Page-1" stroke="none" stroke-width="1" fill="none" fill-rule="evenodd" sketch:type="MSPage">
        <g id="A4" sketch:type="MSArtboardGroup" transform="translate(-137.000000, -385.000000)">
            <g id="Imported-Layers" sketch:type="MSLayerGroup" transform="translate(137.000000, 385.000000)">
                <path d="M39.6533945,12.62235 L38.2122936,14.08095 C37.9284404,14.36825 37.5790826,14.52295 37.1642202,14.52295 L31.6624771,14.52295 L31.6624771,20.3346 L29.0422936,20.3346 L29.0422936,5.5952 L37.1642202,5.5952 C37.5790826,5.5952 37.9284404,5.7499 38.2122936,6.03785 L39.6533945,7.4958 C39.9584404,7.8052 40.1119266,8.1588 40.1119266,8.6008 L40.1119266,11.518 C40.1119266,11.95935 39.9584404,12.31295 39.6533945,12.62235 L39.6533945,12.62235 Z M37.4917431,9.0428 C37.4917431,8.9102 37.4480734,8.8218 37.3607339,8.7334 L36.880367,8.2472 C36.7930275,8.1588 36.7056881,8.1146 36.5746789,8.1146 L31.6624771,8.1146 L31.6624771,12.00355 L36.5746789,12.00355 C36.7056881,12.00355 36.7930275,11.95935 36.880367,11.8716 L37.3607339,11.3854 C37.4480734,11.29635 37.4917431,11.2086 37.4917431,11.076 L37.4917431,9.0428 L37.4917431,9.0428 Z" id="Fill-1" fill="#212D3B" sketch:type="MSShapeGroup"></path>
                <path d="M53.7407339,18.05895 L51.9509174,19.8705 C51.6445872,20.1799 51.2733945,20.3346 50.8591743,20.3346 L46.470367,20.3346 C46.0555046,20.3346 45.6843119,20.1799 45.3792661,19.8705 L43.5888073,18.05895 C43.2831193,17.74955 43.1302752,17.3732 43.1302752,16.9533 L43.1302752,5.5952 L45.7498165,5.5952 L45.7498165,16.51195 C45.7498165,16.62245 45.7934862,16.73295 45.8808257,16.82135 L46.7323853,17.68325 C46.8197248,17.771 46.9070642,17.81585 47.0380734,17.81585 L50.2908257,17.81585 C50.4224771,17.81585 50.5098165,17.771 50.597156,17.68325 L51.4480734,16.82135 C51.536055,16.73295 51.5790826,16.62245 51.5790826,16.51195 L51.5790826,5.5952 L54.1992661,5.5952 L54.1992661,16.9533 C54.1992661,17.3732 54.046422,17.74955 53.7407339,18.05895" id="Fill-2" fill="#212D3B" sketch:type="MSShapeGroup"></path>
                <path d="M69.3590826,18.05895 L67.5686239,19.8705 C67.2629358,20.1799 66.8917431,20.3346 66.4775229,20.3346 L60.3855963,20.3346 C59.9707339,20.3346 59.6001835,20.1799 59.2944954,19.8705 L57.4385321,17.99265 L59.1853211,16.20255 L60.6482569,17.68325 C60.7349541,17.771 60.8229358,17.81585 60.9533028,17.81585 L65.9091743,17.81585 C66.0408257,17.81585 66.1275229,17.771 66.2148624,17.68325 L67.0670642,16.82135 C67.1537615,16.73295 67.1974312,16.62245 67.1974312,16.51195 L67.1974312,15.09755 C67.1974312,14.87655 67.0015596,14.67765 66.7825688,14.65555 L58.9451376,13.59475 C58.093578,13.48425 57.4385321,12.71075 57.4385321,11.8716 L57.4385321,8.9765 C57.4385321,8.5566 57.5913761,8.1809 57.8970642,7.8715 L59.6868807,6.0593 C59.993211,5.7499 60.3644037,5.5952 60.7786239,5.5952 L66.8699083,5.5952 C67.2854128,5.5952 67.6566055,5.7499 67.9616514,6.0593 L69.8176147,7.9378 L68.0708257,9.7279 L66.6078899,8.2472 C66.5211927,8.1588 66.433211,8.1146 66.302844,8.1146 L61.3463303,8.1146 C61.2153211,8.1146 61.1279817,8.1588 61.0406422,8.2472 L60.1890826,9.1091 C60.1017431,9.1975 60.0587156,9.308 60.0587156,9.4185 L60.0587156,10.8329 C60.0587156,11.05325 60.2333945,11.2528 60.4511009,11.2749 L68.3110092,12.33505 C69.1625688,12.4462 69.8176147,13.21905 69.8176147,14.05885 L69.8176147,16.9533 C69.8176147,17.3732 69.6647706,17.74955 69.3590826,18.05895" id="Fill-3" fill="#212D3B" sketch:type="MSShapeGroup"></path>
                <path d="M81.6521101,20.3346 L81.6521101,14.21355 L75.822844,14.21355 L75.822844,20.3346 L73.2026606,20.3346 L73.2026606,5.5952 L75.822844,5.5952 L75.822844,11.6948 L81.6521101,11.6948 L81.6521101,5.5952 L84.2722936,5.5952 L84.2722936,20.3346 L81.6521101,20.3346" id="Fill-4" fill="#212D3B" sketch:type="MSShapeGroup"></path>
                <path d="M94.0183486,6.9654 L94.0183486,20.3346 L92.6652294,20.3346 L92.6652294,6.9654 L88.1454128,6.9654 L88.1454128,5.5952 L98.5381651,5.5952 L98.5381651,6.9654 L94.0183486,6.9654" id="Fill-5" fill="#3BB5EF" sketch:type="MSShapeGroup"></path>
                <path d="M107.839817,13.81575 L107.839817,20.3346 L106.486697,20.3346 L106.486697,13.81575 L101.24633,5.5952 L102.840275,5.5952 L107.184771,12.37925 L111.507431,5.5952 L113.057706,5.5952 L107.839817,13.81575" id="Fill-6" fill="#3BB5EF" sketch:type="MSShapeGroup"></path>
                <path d="M126.592752,12.13615 L125.479174,13.26325 C125.173486,13.57265 124.824128,13.70525 124.409908,13.70525 L118.012936,13.70525 L118.012936,20.3346 L116.658532,20.3346 L116.658532,5.5952 L124.409908,5.5952 C124.824128,5.5952 125.173486,5.7499 125.457982,6.03785 L126.592752,7.1864 C126.899083,7.4958 127.051284,7.8494 127.051284,8.2914 L127.051284,11.0318 C127.051284,11.4517 126.899083,11.82675 126.592752,12.13615 L126.592752,12.13615 Z M125.697523,8.3577 C125.697523,8.2251 125.653853,8.1367 125.566514,8.0483 L124.628257,7.098 C124.540917,7.0096 124.452936,6.9654 124.322569,6.9654 L118.012936,6.9654 L118.012936,12.33505 L124.300734,12.33505 C124.409908,12.33505 124.519083,12.2915 124.60578,12.20245 L125.566514,11.2307 C125.653853,11.1423 125.697523,11.05325 125.697523,10.9213 L125.697523,8.3577 L125.697523,8.3577 Z" id="Fill-7" fill="#3BB5EF" sketch:type="MSShapeGroup"></path>
                <path d="M130.947523,20.3346 L130.947523,5.5952 L139.985872,5.5952 L139.985872,6.9654 L132.301284,6.9654 L132.301284,12.26875 L139.985872,12.26875 L139.985872,13.63895 L132.301284,13.63895 L132.301284,18.9644 L139.985872,18.9644 L139.985872,20.3346 L130.947523,20.3346" id="Fill-8" fill="#3BB5EF" sketch:type="MSShapeGroup"></path>
                <path d="M22.3222936,18.7161 C22.3222936,19.1217 22.0384404,19.61895 21.6910092,19.82175 L11.8222936,25.5892 C11.4748624,25.79135 10.9077982,25.79135 10.560367,25.5892 L0.690366972,19.82175 C0.34293578,19.61895 0.0597247706,19.1217 0.0597247706,18.7161 L0.0597247706,7.1812 C0.0597247706,6.7756 0.34293578,6.279 0.690366972,6.0762 L10.560367,0.30615 C10.9077982,0.104 11.4748624,0.104 11.8222936,0.30615 L21.6910092,6.0762 C22.0384404,6.279 22.3222936,6.7756 22.3222936,7.1812 L22.3222936,18.7161" id="Fill-9" fill="#3BB5EF" sketch:type="MSShapeGroup"></path>
                <path d="M12.7155963,17.3901 L13.0418349,19.07165 L14.8631193,19.07165 L11.190367,4.31405 L7.51889908,19.0723 L9.34018349,19.07165 L9.66770642,17.3849 L12.7155963,17.3901" id="Fill-10" fill="#FFFFFF" sketch:type="MSShapeGroup"></path>
            </g>
        </g>
    </g>
</svg>